<?xml version="1.0" standalone="no"?>
<!DOCTYPE svg PUBLIC "-//W3C//DTD SVG 20010904//EN"
 "http://www.w3.org/TR/2001/REC-SVG-20010904/DTD/svg10.dtd">
<svg version="1.0" xmlns="http://www.w3.org/2000/svg"
 width="2156.000000pt" height="2156.000000pt" viewBox="0 0 2156.000000 2156.000000"
 preserveAspectRatio="xMidYMid meet">
<metadata>
Created by potrace 1.14, written by Peter Selinger 2001-2017
</metadata>
<g transform="translate(0.000000,2156.000000) scale(0.100000,-0.100000)"
fill="#000000" stroke="none">
<path d="M10318 21545 c-2 -2 -62 -7 -133 -10 -160 -9 -178 -10 -290 -20 -49
-4 -108 -9 -130 -10 -61 -5 -167 -16 -195 -21 -14 -2 -54 -6 -90 -9 -36 -4
-72 -8 -80 -10 -8 -2 -40 -7 -70 -10 -30 -3 -62 -8 -70 -10 -8 -2 -40 -7 -70
-10 -30 -3 -91 -13 -135 -20 -44 -8 -97 -17 -119 -21 -21 -3 -48 -8 -60 -10
-11 -2 -37 -7 -56 -10 -19 -3 -91 -17 -160 -30 -69 -14 -136 -28 -150 -30 -14
-3 -33 -7 -42 -10 -10 -3 -30 -7 -45 -10 -16 -3 -36 -7 -45 -10 -9 -3 -25 -7
-35 -9 -10 -2 -40 -9 -68 -15 -27 -6 -57 -13 -65 -15 -47 -11 -145 -36 -210
-54 -41 -12 -86 -24 -100 -27 -14 -3 -70 -19 -125 -36 -55 -16 -116 -34 -135
-39 -244 -68 -852 -290 -1150 -422 -174 -76 -274 -123 -485 -228 -220 -110
-306 -154 -438 -227 -26 -15 -60 -34 -75 -42 -176 -96 -422 -249 -672 -416
-317 -212 -417 -285 -699 -506 -139 -109 -159 -125 -380 -313 -147 -124 -368
-331 -576 -540 -205 -205 -254 -256 -402 -420 -350 -389 -662 -792 -961 -1240
-137 -205 -412 -652 -412 -669 0 -3 -12 -25 -27 -49 -55 -87 -315 -598 -385
-757 -9 -19 -28 -62 -43 -95 -15 -33 -43 -98 -62 -145 -19 -47 -39 -89 -44
-94 -5 -6 -9 -16 -9 -23 0 -7 -9 -32 -19 -56 -112 -246 -380 -1049 -446 -1337
-2 -8 -17 -69 -34 -135 -16 -66 -32 -133 -35 -150 -3 -16 -10 -45 -15 -62 -5
-18 -8 -33 -6 -33 3 0 1 -10 -4 -23 -5 -13 -12 -41 -15 -63 -4 -21 -11 -55
-16 -74 -5 -19 -11 -46 -13 -60 -3 -14 -12 -63 -21 -110 -8 -47 -17 -97 -20
-113 -3 -15 -9 -53 -15 -85 -6 -31 -13 -77 -16 -102 -4 -24 -8 -47 -10 -50 -1
-3 -6 -36 -10 -75 -4 -38 -8 -72 -10 -75 -2 -3 -6 -34 -10 -70 -4 -36 -9 -72
-10 -81 -4 -19 -13 -95 -20 -169 -3 -30 -7 -66 -10 -80 -2 -14 -7 -54 -9 -90
-3 -36 -8 -101 -12 -145 -24 -297 -29 -446 -29 -885 0 -406 5 -594 20 -770 3
-30 7 -86 10 -125 5 -70 10 -127 21 -220 3 -27 7 -68 9 -90 2 -36 6 -63 20
-170 2 -16 7 -52 10 -80 3 -27 8 -59 10 -70 2 -11 7 -42 10 -70 3 -27 8 -61
11 -75 3 -14 8 -41 10 -60 4 -29 50 -286 68 -380 104 -535 262 -1096 461
-1636 349 -947 858 -1881 1467 -2691 178 -238 418 -534 528 -653 8 -9 33 -36
54 -60 245 -279 637 -670 931 -930 98 -86 115 -101 235 -200 63 -52 120 -99
126 -105 6 -5 26 -22 45 -37 19 -14 68 -53 109 -85 283 -221 623 -458 920
-643 74 -46 151 -93 170 -106 243 -155 834 -458 1215 -624 66 -28 134 -58 150
-65 17 -7 73 -30 125 -50 52 -21 114 -46 137 -56 24 -10 45 -19 49 -19 3 0 65
-22 137 -49 472 -175 1017 -328 1592 -447 76 -16 425 -75 520 -89 23 -3 50 -7
60 -9 11 -2 47 -7 80 -10 33 -4 71 -9 85 -11 14 -3 45 -6 70 -9 25 -3 66 -7
93 -10 26 -3 68 -9 95 -12 26 -3 74 -7 107 -9 33 -2 85 -7 115 -10 58 -6 105
-9 335 -22 279 -16 1051 -9 1315 12 19 1 76 5 125 9 50 3 106 8 125 11 19 2
69 7 110 11 41 3 77 7 80 9 3 2 43 6 90 10 47 3 92 8 100 10 8 2 35 7 60 10
25 3 56 8 70 10 14 3 45 7 70 10 25 3 56 8 70 10 14 2 81 13 150 24 69 11 204
37 300 56 96 20 186 38 200 41 14 3 53 11 88 19 34 8 76 17 94 20 17 3 34 8
38 10 3 2 17 6 31 8 53 10 383 99 524 142 83 26 157 48 165 50 18 4 259 84
280 92 8 3 20 7 25 8 6 2 78 28 160 59 83 32 155 58 160 60 6 2 21 7 35 13 14
6 51 20 82 31 32 12 66 26 75 31 10 6 72 32 138 60 67 27 152 64 190 81 39 18
110 50 159 72 81 37 461 227 496 248 8 5 83 46 165 91 535 293 1121 691 1615
1098 93 77 307 260 356 306 6 5 56 50 110 100 97 88 535 523 604 601 20 21 62
68 94 104 112 124 131 145 181 205 27 33 52 62 55 65 12 10 196 236 266 325
463 595 840 1194 1163 1850 106 215 181 372 181 379 0 2 17 42 39 88 21 45 46
106 56 133 10 28 21 55 25 60 4 6 17 37 30 70 13 33 29 74 36 90 43 100 168
456 252 715 69 213 215 765 248 935 4 22 8 45 10 50 7 26 33 153 37 180 5 32
24 134 32 175 6 27 10 52 20 120 4 25 9 54 11 65 3 11 11 67 19 125 8 58 18
121 20 140 6 37 12 84 20 165 3 28 8 61 10 75 6 39 21 193 30 310 3 41 7 98 9
125 16 193 20 366 21 765 0 250 -4 514 -8 585 -22 358 -24 377 -52 625 -6 51
-16 140 -21 175 -2 17 -6 53 -9 80 -4 28 -8 64 -11 80 -3 17 -7 41 -9 55 -2
14 -7 45 -10 70 -3 25 -15 97 -26 160 -11 63 -24 138 -29 166 -26 155 -137
645 -185 819 -10 33 -19 67 -20 75 -2 8 -23 78 -45 155 -23 77 -44 149 -47
160 -2 11 -8 29 -13 40 -4 11 -31 92 -59 180 -28 88 -56 169 -61 180 -4 11
-30 79 -55 150 -40 111 -115 303 -144 370 -22 50 -41 95 -66 155 -15 36 -42
97 -59 135 -18 39 -48 104 -66 145 -56 125 -198 405 -290 575 -113 206 -110
202 -226 394 -54 91 -106 176 -114 190 -36 62 -335 506 -350 521 -3 3 -14 18
-24 35 -11 16 -23 34 -28 40 -5 5 -68 89 -140 185 -72 96 -136 180 -142 186
-6 6 -24 29 -41 50 -34 43 -226 276 -235 284 -3 3 -34 39 -70 80 -36 41 -69
80 -75 86 -151 166 -236 254 -410 429 -238 238 -296 293 -543 512 -31 28 -370
311 -422 352 -19 15 -105 80 -190 144 -85 65 -159 121 -165 125 -149 116 -627
426 -910 590 -261 151 -701 380 -915 475 -568 252 -983 405 -1510 556 -151 43
-535 140 -610 155 -14 3 -45 9 -70 14 -185 39 -249 52 -275 57 -234 42 -407
69 -570 91 -22 3 -53 7 -70 9 -33 5 -108 14 -170 20 -22 3 -62 7 -90 10 -136
14 -165 16 -355 30 -47 3 -116 8 -155 11 -75 6 -1061 15 -1067 9z"/>
</g>
</svg>
